<mxfile host="app.diagrams.net" modified="2023-07-06T02:05:18.772Z" agent="Mozilla/5.0 (Windows NT 10.0; Win64; x64) AppleWebKit/537.36 (KHTML, like Gecko) Chrome/114.0.0.0 Safari/537.36" etag="WlEeqzel1GKJEak2AAcj" version="21.3.6" type="github">
  <diagram id="C5RBs43oDa-KdzZeNtuy" name="Page-1">
    <mxGraphModel dx="1799" dy="1070" grid="1" gridSize="10" guides="1" tooltips="1" connect="1" arrows="1" fold="1" page="1" pageScale="1" pageWidth="827" pageHeight="1169" math="0" shadow="0">
      <root>
        <mxCell id="WIyWlLk6GJQsqaUBKTNV-0" />
        <mxCell id="WIyWlLk6GJQsqaUBKTNV-1" parent="WIyWlLk6GJQsqaUBKTNV-0" />
        <mxCell id="iw7mZYzHqcS886OfsrDb-45" value="UAS 埋点接入流程" style="swimlane;childLayout=stackLayout;resizeParent=1;resizeParentMax=0;horizontal=1;startSize=40;horizontalStack=0;sketch=1;hachureGap=4;jiggle=2;curveFitting=1;fontFamily=Architects Daughter;fontSource=https%3A%2F%2Ffonts.googleapis.com%2Fcss%3Ffamily%3DArchitects%2BDaughter;fontSize=20;labelBorderColor=none;html=1;" vertex="1" parent="WIyWlLk6GJQsqaUBKTNV-1">
          <mxGeometry x="13" y="100" width="800" height="830" as="geometry">
            <mxRectangle x="27" y="130" width="80" height="40" as="alternateBounds" />
          </mxGeometry>
        </mxCell>
        <mxCell id="iw7mZYzHqcS886OfsrDb-54" value="接入系统" style="swimlane;startSize=43;horizontal=0;html=1;sketch=1;hachureGap=4;jiggle=2;curveFitting=1;fontFamily=Architects Daughter;fontSource=https%3A%2F%2Ffonts.googleapis.com%2Fcss%3Ffamily%3DArchitects%2BDaughter;fontSize=20;" vertex="1" parent="iw7mZYzHqcS886OfsrDb-45">
          <mxGeometry y="40" width="800" height="220" as="geometry">
            <mxRectangle y="580" width="790" height="40" as="alternateBounds" />
          </mxGeometry>
        </mxCell>
        <mxCell id="iw7mZYzHqcS886OfsrDb-6" value="" style="shape=actor;whiteSpace=wrap;html=1;sketch=1;hachureGap=4;jiggle=2;curveFitting=1;fontFamily=Architects Daughter;fontSource=https%3A%2F%2Ffonts.googleapis.com%2Fcss%3Ffamily%3DArchitects%2BDaughter;fontSize=20;fillColor=#d5e8d4;strokeColor=#82b366;" vertex="1" parent="iw7mZYzHqcS886OfsrDb-54">
          <mxGeometry x="163" y="20" width="40" height="60" as="geometry" />
        </mxCell>
        <mxCell id="iw7mZYzHqcS886OfsrDb-7" value="接入系统" style="ellipse;whiteSpace=wrap;html=1;sketch=1;hachureGap=4;jiggle=2;curveFitting=1;fontFamily=Architects Daughter;fontSource=https%3A%2F%2Ffonts.googleapis.com%2Fcss%3Ffamily%3DArchitects%2BDaughter;fontSize=20;fillColor=#d5e8d4;strokeColor=#82b366;" vertex="1" parent="iw7mZYzHqcS886OfsrDb-54">
          <mxGeometry x="475.5" y="25" width="215" height="80" as="geometry" />
        </mxCell>
        <mxCell id="iw7mZYzHqcS886OfsrDb-11" value="接入系统负责人" style="text;html=1;strokeColor=none;fillColor=none;align=center;verticalAlign=middle;whiteSpace=wrap;rounded=0;fontSize=20;fontFamily=Architects Daughter;" vertex="1" parent="iw7mZYzHqcS886OfsrDb-54">
          <mxGeometry x="133" y="90" width="100" height="40" as="geometry" />
        </mxCell>
        <mxCell id="iw7mZYzHqcS886OfsrDb-13" value="" style="shape=flexArrow;endArrow=classic;html=1;rounded=0;sketch=1;hachureGap=4;jiggle=2;curveFitting=1;fontFamily=Architects Daughter;fontSource=https%3A%2F%2Ffonts.googleapis.com%2Fcss%3Ffamily%3DArchitects%2BDaughter;fontSize=16;" edge="1" parent="iw7mZYzHqcS886OfsrDb-54">
          <mxGeometry width="50" height="50" relative="1" as="geometry">
            <mxPoint x="183" y="140" as="sourcePoint" />
            <mxPoint x="183" y="210" as="targetPoint" />
          </mxGeometry>
        </mxCell>
        <mxCell id="iw7mZYzHqcS886OfsrDb-15" value="埋点配置信息录入" style="text;html=1;strokeColor=none;fillColor=none;align=center;verticalAlign=middle;whiteSpace=wrap;rounded=0;fontSize=20;fontFamily=Architects Daughter;" vertex="1" parent="iw7mZYzHqcS886OfsrDb-54">
          <mxGeometry x="203" y="160" width="100" height="30" as="geometry" />
        </mxCell>
        <mxCell id="iw7mZYzHqcS886OfsrDb-18" value="" style="shape=flexArrow;endArrow=classic;html=1;rounded=0;sketch=1;hachureGap=4;jiggle=2;curveFitting=1;fontFamily=Architects Daughter;fontSource=https%3A%2F%2Ffonts.googleapis.com%2Fcss%3Ffamily%3DArchitects%2BDaughter;fontSize=16;endWidth=19;endSize=7.33;" edge="1" parent="iw7mZYzHqcS886OfsrDb-54">
          <mxGeometry width="50" height="50" relative="1" as="geometry">
            <mxPoint x="563" y="115" as="sourcePoint" />
            <mxPoint x="513" y="205" as="targetPoint" />
          </mxGeometry>
        </mxCell>
        <mxCell id="iw7mZYzHqcS886OfsrDb-19" value="" style="shape=flexArrow;endArrow=classic;html=1;rounded=0;sketch=1;hachureGap=4;jiggle=2;curveFitting=1;fontFamily=Architects Daughter;fontSource=https%3A%2F%2Ffonts.googleapis.com%2Fcss%3Ffamily%3DArchitects%2BDaughter;fontSize=16;endWidth=19;endSize=7.33;" edge="1" parent="iw7mZYzHqcS886OfsrDb-54">
          <mxGeometry width="50" height="50" relative="1" as="geometry">
            <mxPoint x="583" y="115" as="sourcePoint" />
            <mxPoint x="633" y="205" as="targetPoint" />
          </mxGeometry>
        </mxCell>
        <mxCell id="iw7mZYzHqcS886OfsrDb-21" value="or" style="text;html=1;align=center;verticalAlign=middle;resizable=0;points=[];autosize=1;strokeColor=none;fillColor=none;fontSize=20;fontFamily=Architects Daughter;" vertex="1" parent="iw7mZYzHqcS886OfsrDb-54">
          <mxGeometry x="548" y="148" width="50" height="40" as="geometry" />
        </mxCell>
        <mxCell id="iw7mZYzHqcS886OfsrDb-22" value="自行调用服务&lt;br&gt;在埋点页面&lt;br&gt;自主上报" style="text;html=1;strokeColor=none;fillColor=none;align=center;verticalAlign=middle;whiteSpace=wrap;rounded=0;fontSize=20;fontFamily=Architects Daughter;" vertex="1" parent="iw7mZYzHqcS886OfsrDb-54">
          <mxGeometry x="598" y="106.5" width="190" height="67" as="geometry" />
        </mxCell>
        <mxCell id="iw7mZYzHqcS886OfsrDb-23" value="引入SDK&lt;br&gt;埋点信息自动上报" style="text;html=1;strokeColor=none;fillColor=none;align=center;verticalAlign=middle;whiteSpace=wrap;rounded=0;fontSize=20;fontFamily=Architects Daughter;" vertex="1" parent="iw7mZYzHqcS886OfsrDb-54">
          <mxGeometry x="433" y="125" width="100" height="30" as="geometry" />
        </mxCell>
        <mxCell id="iw7mZYzHqcS886OfsrDb-46" value="UAS" style="swimlane;startSize=43;horizontal=0;html=1;sketch=1;hachureGap=4;jiggle=2;curveFitting=1;fontFamily=Architects Daughter;fontSource=https%3A%2F%2Ffonts.googleapis.com%2Fcss%3Ffamily%3DArchitects%2BDaughter;fontSize=20;" vertex="1" parent="iw7mZYzHqcS886OfsrDb-45">
          <mxGeometry y="260" width="800" height="160" as="geometry" />
        </mxCell>
        <mxCell id="iw7mZYzHqcS886OfsrDb-1" value="UAS管理系统" style="rounded=1;whiteSpace=wrap;html=1;sketch=1;hachureGap=4;jiggle=2;curveFitting=1;fontFamily=Architects Daughter;fontSource=https%3A%2F%2Ffonts.googleapis.com%2Fcss%3Ffamily%3DArchitects%2BDaughter;fontSize=20;fillColor=#dae8fc;strokeColor=#6c8ebf;" vertex="1" parent="iw7mZYzHqcS886OfsrDb-46">
          <mxGeometry x="73" y="25" width="230" height="85" as="geometry" />
        </mxCell>
        <mxCell id="iw7mZYzHqcS886OfsrDb-2" value="UAS埋点接收服务" style="rounded=1;whiteSpace=wrap;html=1;sketch=1;hachureGap=4;jiggle=2;curveFitting=1;fontFamily=Architects Daughter;fontSource=https%3A%2F%2Ffonts.googleapis.com%2Fcss%3Ffamily%3DArchitects%2BDaughter;fontSize=20;fillColor=#dae8fc;strokeColor=#6c8ebf;" vertex="1" parent="iw7mZYzHqcS886OfsrDb-46">
          <mxGeometry x="443" y="20" width="300" height="90" as="geometry" />
        </mxCell>
        <mxCell id="iw7mZYzHqcS886OfsrDb-24" value="" style="shape=flexArrow;endArrow=classic;html=1;rounded=0;sketch=1;hachureGap=4;jiggle=2;curveFitting=1;fontFamily=Architects Daughter;fontSource=https%3A%2F%2Ffonts.googleapis.com%2Fcss%3Ffamily%3DArchitects%2BDaughter;fontSize=16;" edge="1" parent="iw7mZYzHqcS886OfsrDb-46">
          <mxGeometry width="50" height="50" relative="1" as="geometry">
            <mxPoint x="313" y="65" as="sourcePoint" />
            <mxPoint x="423" y="65" as="targetPoint" />
          </mxGeometry>
        </mxCell>
        <mxCell id="iw7mZYzHqcS886OfsrDb-37" value="系统以及所属点位映射关系" style="text;html=1;strokeColor=none;fillColor=none;align=center;verticalAlign=middle;whiteSpace=wrap;rounded=0;fontSize=20;fontFamily=Architects Daughter;" vertex="1" parent="iw7mZYzHqcS886OfsrDb-46">
          <mxGeometry x="313" y="100" width="110" height="30" as="geometry" />
        </mxCell>
        <mxCell id="iw7mZYzHqcS886OfsrDb-27" value="" style="shape=flexArrow;endArrow=classic;html=1;rounded=0;sketch=1;hachureGap=4;jiggle=2;curveFitting=1;fontFamily=Architects Daughter;fontSource=https%3A%2F%2Ffonts.googleapis.com%2Fcss%3Ffamily%3DArchitects%2BDaughter;fontSize=16;" edge="1" parent="iw7mZYzHqcS886OfsrDb-46">
          <mxGeometry width="50" height="50" relative="1" as="geometry">
            <mxPoint x="573" y="120" as="sourcePoint" />
            <mxPoint x="573" y="220" as="targetPoint" />
          </mxGeometry>
        </mxCell>
        <mxCell id="iw7mZYzHqcS886OfsrDb-47" value="数据中台" style="swimlane;startSize=43;horizontal=0;html=1;sketch=1;hachureGap=4;jiggle=2;curveFitting=1;fontFamily=Architects Daughter;fontSource=https%3A%2F%2Ffonts.googleapis.com%2Fcss%3Ffamily%3DArchitects%2BDaughter;fontSize=20;" vertex="1" parent="iw7mZYzHqcS886OfsrDb-45">
          <mxGeometry y="420" width="800" height="410" as="geometry" />
        </mxCell>
        <mxCell id="iw7mZYzHqcS886OfsrDb-3" value="数据中台" style="shape=cylinder3;whiteSpace=wrap;html=1;boundedLbl=1;backgroundOutline=1;size=15;sketch=1;hachureGap=4;jiggle=2;curveFitting=1;fontFamily=Architects Daughter;fontSource=https%3A%2F%2Ffonts.googleapis.com%2Fcss%3Ffamily%3DArchitects%2BDaughter;fontSize=20;fillColor=#fff2cc;strokeColor=#d6b656;" vertex="1" parent="iw7mZYzHqcS886OfsrDb-47">
          <mxGeometry x="65" y="67" width="670" height="110" as="geometry" />
        </mxCell>
        <mxCell id="iw7mZYzHqcS886OfsrDb-29" value="中台每天定时增量同步数据" style="text;html=1;strokeColor=none;fillColor=none;align=center;verticalAlign=middle;whiteSpace=wrap;rounded=0;fontSize=20;fontFamily=Architects Daughter;" vertex="1" parent="iw7mZYzHqcS886OfsrDb-47">
          <mxGeometry x="595" width="140" height="67" as="geometry" />
        </mxCell>
        <mxCell id="iw7mZYzHqcS886OfsrDb-30" value="天枢报表" style="rounded=1;whiteSpace=wrap;html=1;sketch=1;hachureGap=4;jiggle=2;curveFitting=1;fontFamily=Architects Daughter;fontSource=https%3A%2F%2Ffonts.googleapis.com%2Fcss%3Ffamily%3DArchitects%2BDaughter;fontSize=20;fillColor=#fff2cc;strokeColor=#d6b656;" vertex="1" parent="WIyWlLk6GJQsqaUBKTNV-1">
          <mxGeometry x="90" y="800" width="310" height="80" as="geometry" />
        </mxCell>
        <mxCell id="iw7mZYzHqcS886OfsrDb-31" value="报表中心 - 埋点明细表" style="rounded=1;whiteSpace=wrap;html=1;sketch=1;hachureGap=4;jiggle=2;curveFitting=1;fontFamily=Architects Daughter;fontSource=https%3A%2F%2Ffonts.googleapis.com%2Fcss%3Ffamily%3DArchitects%2BDaughter;fontSize=20;fillColor=#fff2cc;strokeColor=#d6b656;" vertex="1" parent="WIyWlLk6GJQsqaUBKTNV-1">
          <mxGeometry x="430" y="800" width="320" height="80" as="geometry" />
        </mxCell>
        <mxCell id="iw7mZYzHqcS886OfsrDb-32" value="" style="shape=flexArrow;endArrow=classic;html=1;rounded=0;sketch=1;hachureGap=4;jiggle=2;curveFitting=1;fontFamily=Architects Daughter;fontSource=https%3A%2F%2Ffonts.googleapis.com%2Fcss%3Ffamily%3DArchitects%2BDaughter;fontSize=16;" edge="1" parent="WIyWlLk6GJQsqaUBKTNV-1">
          <mxGeometry width="50" height="50" relative="1" as="geometry">
            <mxPoint x="220" y="690" as="sourcePoint" />
            <mxPoint x="220" y="790" as="targetPoint" />
          </mxGeometry>
        </mxCell>
        <mxCell id="iw7mZYzHqcS886OfsrDb-33" value="数据分析处理" style="text;html=1;strokeColor=none;fillColor=none;align=center;verticalAlign=middle;whiteSpace=wrap;rounded=0;fontSize=20;fontFamily=Architects Daughter;" vertex="1" parent="WIyWlLk6GJQsqaUBKTNV-1">
          <mxGeometry x="230" y="700" width="140" height="67" as="geometry" />
        </mxCell>
        <mxCell id="iw7mZYzHqcS886OfsrDb-34" value="" style="shape=flexArrow;endArrow=classic;html=1;rounded=0;sketch=1;hachureGap=4;jiggle=2;curveFitting=1;fontFamily=Architects Daughter;fontSource=https%3A%2F%2Ffonts.googleapis.com%2Fcss%3Ffamily%3DArchitects%2BDaughter;fontSize=16;" edge="1" parent="WIyWlLk6GJQsqaUBKTNV-1">
          <mxGeometry width="50" height="50" relative="1" as="geometry">
            <mxPoint x="540" y="690" as="sourcePoint" />
            <mxPoint x="540" y="790" as="targetPoint" />
          </mxGeometry>
        </mxCell>
        <mxCell id="iw7mZYzHqcS886OfsrDb-35" value="明细数据展示" style="text;html=1;strokeColor=none;fillColor=none;align=center;verticalAlign=middle;whiteSpace=wrap;rounded=0;fontSize=20;fontFamily=Architects Daughter;" vertex="1" parent="WIyWlLk6GJQsqaUBKTNV-1">
          <mxGeometry x="550" y="700" width="140" height="67" as="geometry" />
        </mxCell>
      </root>
    </mxGraphModel>
  </diagram>
</mxfile>
